<svg width="97" height="29" viewBox="0 0 97 29" fill="none" xmlns="http://www.w3.org/2000/svg">
<path d="M70.8331 22.9117V23.5202H68.4141V22.9117H70.8331Z" fill="#FFC700"/>
<path d="M75.3452 21.3962L73.8117 25.6441H73.1637L71.6302 21.3962H72.3214L73.4661 24.7813H73.5093L74.654 21.3962H75.3452Z" fill="#FFC700"/>
<path d="M77.7764 25.7326C77.3768 25.7326 77.0321 25.6423 76.7423 25.4616C76.4544 25.2791 76.2321 25.0246 76.0755 24.6983C75.9207 24.3701 75.8433 23.9885 75.8433 23.5534C75.8433 23.1182 75.9207 22.7347 76.0755 22.4029C76.2321 22.0692 76.4499 21.8092 76.7288 21.623C77.0096 21.4349 77.3372 21.3409 77.7116 21.3409C77.9276 21.3409 78.1408 21.3778 78.3514 21.4515C78.562 21.5253 78.7537 21.6451 78.9265 21.811C79.0993 21.9751 79.237 22.1927 79.3396 22.4637C79.4422 22.7347 79.4934 23.0685 79.4934 23.4649V23.7414H76.2969V23.1772H78.8455C78.8455 22.9376 78.7987 22.7237 78.7051 22.5356C78.6133 22.3476 78.4819 22.1991 78.3109 22.0904C78.1417 21.9816 77.942 21.9272 77.7116 21.9272C77.4578 21.9272 77.2382 21.9917 77.0528 22.1208C76.8692 22.248 76.7279 22.4139 76.6289 22.6186C76.5299 22.8232 76.4804 23.0426 76.4804 23.2768V23.6529C76.4804 23.9737 76.5344 24.2457 76.6424 24.4688C76.7522 24.69 76.9043 24.8587 77.0987 24.9749C77.2931 25.0892 77.519 25.1463 77.7764 25.1463C77.9438 25.1463 78.0949 25.1224 78.2299 25.0744C78.3667 25.0246 78.4846 24.9509 78.5836 24.8532C78.6826 24.7536 78.7591 24.6301 78.8131 24.4826L79.4287 24.6596C79.3639 24.8735 79.255 25.0615 79.102 25.2238C78.949 25.3842 78.76 25.5095 78.535 25.5999C78.31 25.6884 78.0571 25.7326 77.7764 25.7326Z" fill="#FFC700"/>
<path d="M80.4627 25.6441V21.3962H81.0782V22.0378H81.1214C81.197 21.8276 81.3338 21.6571 81.5318 21.5262C81.7298 21.3953 81.953 21.3298 82.2014 21.3298C82.2482 21.3298 82.3067 21.3307 82.3769 21.3326C82.447 21.3344 82.5001 21.3372 82.5361 21.3409V22.0046C82.5145 21.9991 82.465 21.9908 82.3877 21.9797C82.3121 21.9668 82.232 21.9604 82.1474 21.9604C81.9458 21.9604 81.7658 22.0037 81.6074 22.0904C81.4508 22.1752 81.3266 22.2932 81.2348 22.4444C81.1448 22.5937 81.0998 22.7642 81.0998 22.956V25.6441H80.4627Z" fill="#FFC700"/>
<path d="M86.2288 22.3476L85.6565 22.5135C85.6205 22.4158 85.5674 22.3208 85.4972 22.2286C85.4288 22.1346 85.3352 22.0572 85.2164 21.9963C85.0976 21.9355 84.9455 21.9051 84.7601 21.9051C84.5063 21.9051 84.2949 21.965 84.1257 22.0848C83.9583 22.2028 83.8746 22.3531 83.8746 22.5356C83.8746 22.6979 83.9322 22.826 84.0474 22.92C84.1626 23.0141 84.3425 23.0924 84.5873 23.1551L85.2029 23.31C85.5737 23.4022 85.8499 23.5432 86.0317 23.7331C86.2135 23.9212 86.3044 24.1636 86.3044 24.4605C86.3044 24.7038 86.236 24.9214 86.0992 25.1131C85.9642 25.3049 85.7753 25.4561 85.5323 25.5667C85.2893 25.6773 85.0067 25.7326 84.6845 25.7326C84.2616 25.7326 83.9115 25.6386 83.6343 25.4505C83.3571 25.2625 83.1816 24.9878 83.1078 24.6264L83.7126 24.4715C83.7702 24.7002 83.8791 24.8716 84.0393 24.9859C84.2013 25.1002 84.4127 25.1574 84.6737 25.1574C84.9707 25.1574 85.2065 25.0929 85.3811 24.9638C85.5575 24.8329 85.6457 24.6762 85.6457 24.4937C85.6457 24.3462 85.5953 24.2226 85.4945 24.1231C85.3937 24.0217 85.2389 23.9461 85.0301 23.8963L84.3389 23.7304C83.9592 23.6382 83.6802 23.4953 83.502 23.3017C83.3256 23.1063 83.2374 22.862 83.2374 22.5688C83.2374 22.3291 83.3031 22.1171 83.4345 21.9327C83.5677 21.7483 83.7486 21.6036 83.9772 21.4985C84.2076 21.3934 84.4685 21.3409 84.7601 21.3409C85.1705 21.3409 85.4927 21.4331 85.7267 21.6174C85.9624 21.8018 86.1298 22.0452 86.2288 22.3476Z" fill="#FFC700"/>
<path d="M87.2635 25.6441V21.3962H87.9007V25.6441H87.2635ZM87.5875 20.6882C87.4633 20.6882 87.3562 20.6449 87.2662 20.5582C87.178 20.4716 87.1339 20.3674 87.1339 20.2457C87.1339 20.124 87.178 20.0199 87.2662 19.9332C87.3562 19.8466 87.4633 19.8032 87.5875 19.8032C87.7117 19.8032 87.8179 19.8466 87.9061 19.9332C87.9961 20.0199 88.0411 20.124 88.0411 20.2457C88.0411 20.3674 87.9961 20.4716 87.9061 20.5582C87.8179 20.6449 87.7117 20.6882 87.5875 20.6882Z" fill="#FFC700"/>
<path d="M90.7524 25.7326C90.378 25.7326 90.0495 25.6414 89.7669 25.4588C89.4862 25.2763 89.2666 25.021 89.1082 24.6928C88.9516 24.3646 88.8733 23.9811 88.8733 23.5423C88.8733 23.0998 88.9516 22.7135 89.1082 22.3835C89.2666 22.0535 89.4862 21.7972 89.7669 21.6147C90.0495 21.4322 90.378 21.3409 90.7524 21.3409C91.1267 21.3409 91.4543 21.4322 91.7351 21.6147C92.0177 21.7972 92.2373 22.0535 92.3939 22.3835C92.5522 22.7135 92.6314 23.0998 92.6314 23.5423C92.6314 23.9811 92.5522 24.3646 92.3939 24.6928C92.2373 25.021 92.0177 25.2763 91.7351 25.4588C91.4543 25.6414 91.1267 25.7326 90.7524 25.7326ZM90.7524 25.1463C91.0368 25.1463 91.2707 25.0717 91.4543 24.9223C91.6379 24.773 91.7738 24.5766 91.862 24.3332C91.9502 24.0899 91.9943 23.8262 91.9943 23.5423C91.9943 23.2584 91.9502 22.9938 91.862 22.7486C91.7738 22.5034 91.6379 22.3052 91.4543 22.154C91.2707 22.0028 91.0368 21.9272 90.7524 21.9272C90.468 21.9272 90.234 22.0028 90.0504 22.154C89.8668 22.3052 89.7309 22.5034 89.6427 22.7486C89.5546 22.9938 89.5105 23.2584 89.5105 23.5423C89.5105 23.8262 89.5546 24.0899 89.6427 24.3332C89.7309 24.5766 89.8668 24.773 90.0504 24.9223C90.234 25.0717 90.468 25.1463 90.7524 25.1463Z" fill="#FFC700"/>
<path d="M94.2412 23.0887V25.6441H93.6041V21.3962H94.2196V22.0599H94.2736C94.3708 21.8442 94.5184 21.6709 94.7164 21.54C94.9144 21.4073 95.17 21.3409 95.4831 21.3409C95.7639 21.3409 96.0096 21.3999 96.2202 21.5179C96.4308 21.634 96.5946 21.811 96.7115 22.0489C96.8285 22.2849 96.887 22.5836 96.887 22.9449V25.6441H96.2499V22.9892C96.2499 22.6555 96.1653 22.3955 95.9961 22.2093C95.8269 22.0212 95.5947 21.9272 95.2995 21.9272C95.0962 21.9272 94.9144 21.9724 94.7542 22.0627C94.5958 22.153 94.4707 22.2849 94.3789 22.4582C94.2871 22.6315 94.2412 22.8417 94.2412 23.0887Z" fill="#FFC700"/>
<path d="M63.8859 24.7258C63.9423 25.5836 64.0213 26.2232 64.126 26.7312C64.2066 27.1059 64.2469 27.3558 64.2469 27.5057C64.2469 27.8638 64.118 28.0386 63.8521 28.0386C63.5862 28.0386 63.4492 27.8554 63.4492 27.4973C63.4492 27.3641 63.4734 27.0809 63.5137 26.6562C63.6184 25.6985 63.6668 24.7908 63.6668 23.933V23.2585L63.6507 22.1675L63.6345 21.5096C63.6345 20.96 63.699 20.5186 63.836 20.1938C63.9729 19.8691 64.1905 19.6026 64.5047 19.4193C64.819 19.2361 65.1171 19.1445 65.3991 19.1445C65.7697 19.1445 66.092 19.2778 66.3498 19.5359C66.6077 19.7941 66.7366 20.1272 66.7366 20.527C66.7366 21.1266 66.3821 21.6096 65.673 21.9926C66.0275 22.1176 66.3579 22.3507 66.648 22.6839C66.938 23.017 67.0911 23.4334 67.0911 23.9414C67.0911 24.3411 66.9703 24.7325 66.7205 25.1156C66.4707 25.4987 66.092 25.6902 65.5683 25.6902C64.8754 25.6902 64.3291 25.4004 63.8859 24.7258ZM63.8763 24.3078C64.3113 24.8241 64.7787 25.0823 65.2621 25.0823C65.665 25.0823 65.9873 24.9074 66.2451 24.5659C66.5029 24.2245 66.6238 23.8664 66.6238 23.5083C66.6238 23.1919 66.5029 22.9254 66.2612 22.7172C66.0195 22.509 65.7617 22.4007 65.4958 22.4007C65.4555 22.4007 65.383 22.409 65.2782 22.434C65.2057 22.4507 65.1493 22.4507 65.0929 22.4507C64.972 22.4507 64.8754 22.4174 64.7948 22.3507C64.7142 22.2841 64.6739 22.2008 64.6739 22.1009C64.6739 22.0176 64.7062 21.9427 64.7706 21.8844C64.8351 21.8178 64.9237 21.7845 65.0365 21.7845C65.109 21.7845 65.1976 21.8094 65.3024 21.8594C65.3507 21.8761 65.391 21.8927 65.4233 21.8927C65.5361 21.8927 65.7053 21.7178 65.9067 21.3764C66.1162 21.0266 66.2209 20.6852 66.2209 20.3437C66.2209 19.8108 65.9953 19.5359 65.5361 19.5359C65.0284 19.5359 64.6256 19.8441 64.3355 20.4687C64.0455 21.0932 63.9004 21.8511 63.9004 22.7505L63.8763 24.0996L63.8763 24.3078Z" fill="#FFC700"/>
<path d="M8.15261 15.7581C8.13694 16.2684 7.95663 16.6511 7.6117 16.9063C7.28244 17.1614 6.89831 17.289 6.4593 17.289C6.03597 17.274 5.65968 17.1389 5.33042 16.8838C5.01685 16.6136 4.86006 16.2234 4.86006 15.7131C4.87574 15.2478 4.8679 13.1242 4.83654 9.34204C4.82086 7.31591 4.85222 5.61997 4.93062 4.2542C3.67631 4.2542 2.61799 4.26171 1.75565 4.27672C1.22257 4.27672 0.814922 4.12663 0.532703 3.82647C0.266163 3.51129 0.125054 3.15109 0.109375 2.74586C0.109375 2.32563 0.242645 1.95792 0.509185 1.64275C0.775725 1.31256 1.17554 1.13997 1.70862 1.12496C2.10059 1.12496 2.61799 1.12496 3.26082 1.12496C3.91933 1.10995 4.63272 1.10244 5.40098 1.10244C6.18492 1.08744 6.96102 1.07993 7.72929 1.07993C8.51323 1.07993 9.22661 1.07993 9.86945 1.07993C10.528 1.07993 11.0532 1.07993 11.4452 1.07993C11.8842 1.07993 12.2291 1.18499 12.48 1.39511C12.7465 1.60523 12.9268 1.86787 13.0209 2.18305C13.115 2.49822 13.1228 2.8134 13.0444 3.12858C12.966 3.44375 12.8014 3.7064 12.5505 3.91652C12.2997 4.12663 11.9626 4.23169 11.5392 4.23169C10.5515 4.23169 9.44612 4.2392 8.22317 4.2542C8.14478 5.55993 8.11342 7.24838 8.1291 9.31953C8.16045 13.1467 8.16829 15.2929 8.15261 15.7581Z" fill="#7B00FF"/>
<path d="M13.706 15.7806C13.659 12.5989 13.6825 9.6197 13.7766 6.84315C13.7923 6.42291 13.9099 6.09273 14.1294 5.8526C14.3646 5.61246 14.6468 5.46238 14.976 5.40234C15.3053 5.3273 15.6345 5.34231 15.9638 5.44737C16.2931 5.53742 16.5596 5.71002 16.7634 5.96516C16.9829 6.2203 17.0848 6.55799 17.0692 6.97822C16.9751 9.78479 16.9516 12.7039 16.9986 15.7356C16.9986 16.2459 16.834 16.6361 16.5047 16.9063C16.1911 17.1614 15.8148 17.2965 15.3758 17.3115C14.9525 17.3115 14.5684 17.1839 14.2234 16.9288C13.8942 16.6736 13.7217 16.2909 13.706 15.7806ZM16.5047 1.48516C16.8183 1.77032 16.9908 2.08549 17.0221 2.43069C17.0535 2.76087 16.9829 3.07605 16.8105 3.37621C16.638 3.66137 16.395 3.894 16.0814 4.0741C15.7835 4.2392 15.4542 4.30673 15.0936 4.27672C14.7487 4.2467 14.4194 4.08161 14.1059 3.78144C13.7923 3.48127 13.6198 3.15859 13.5885 2.8134C13.5571 2.46821 13.6276 2.15303 13.8001 1.86787C13.9883 1.58271 14.2313 1.35759 14.5292 1.1925C14.8271 1.01239 15.1485 0.937353 15.4934 0.96737C15.854 0.997386 16.1911 1.16998 16.5047 1.48516Z" fill="#7B00FF"/>
<path d="M27.0907 17.2214C26.3695 17.4616 25.6639 17.5516 24.974 17.4916C24.2842 17.4316 23.6178 17.2815 22.975 17.0413C22.3008 16.7862 21.6893 16.411 21.1406 15.9157C20.6075 15.4204 20.1685 14.8576 19.8235 14.2273C19.4786 13.5819 19.2748 12.9065 19.2121 12.2011C19.1494 11.3156 19.2983 10.4151 19.6589 9.49963C20.0352 8.56911 20.5604 7.77367 21.2346 7.1133C21.7207 6.63303 22.2694 6.24281 22.8809 5.94265C23.4767 5.65749 24.1587 5.47739 24.927 5.40234C25.6953 5.3273 26.4714 5.45487 27.2553 5.78506C27.6786 5.95015 28.1255 6.2203 28.5958 6.59551C28.6272 6.62553 28.7291 6.71558 28.9016 6.86566L29.3249 7.20335C29.6698 7.45849 29.8737 7.74365 29.9364 8.05883C29.9991 8.374 29.9599 8.67417 29.8188 8.95933C29.6934 9.24449 29.4974 9.48462 29.2308 9.67973C28.9643 9.87484 28.6586 9.9799 28.3136 9.99491C27.9844 9.99491 27.6473 9.86734 27.3023 9.6122C27.271 9.59719 26.9731 9.35705 26.4087 8.89179C26.2205 8.74171 26.0794 8.64415 25.9853 8.59913C25.1387 8.26895 24.3547 8.47156 23.6335 9.20697C23.2572 9.58218 22.9593 10.0249 22.7398 10.5352C22.536 11.0455 22.4576 11.5258 22.5046 11.976C22.536 12.3962 22.7084 12.8315 23.022 13.2817C23.3356 13.717 23.7511 14.0322 24.2685 14.2273C24.8172 14.4224 25.2798 14.4974 25.6561 14.4524C26.048 14.3924 26.3616 14.2498 26.5968 14.0247C26.6752 13.9496 26.7693 13.792 26.879 13.5519C27.2083 12.8615 27.3807 12.5013 27.3964 12.4713C27.6002 12.1111 27.8589 11.871 28.1725 11.7509C28.4861 11.6158 28.7997 11.5858 29.1132 11.6608C29.4425 11.7359 29.7326 11.8785 29.9834 12.0886C30.2343 12.2987 30.3989 12.5613 30.4773 12.8765C30.5557 13.1767 30.5008 13.5069 30.3127 13.8671C30.2656 13.9721 30.1951 14.1222 30.101 14.3173C30.0226 14.5124 29.9521 14.6625 29.8894 14.7676C29.6385 15.3379 29.3406 15.7881 28.9957 16.1183C28.4626 16.6436 27.8276 17.0113 27.0907 17.2214Z" fill="#7B00FF"/>
<path d="M36.3034 15.7581C36.2877 16.2684 36.1074 16.6511 35.7625 16.9063C35.4332 17.1614 35.0491 17.289 34.6101 17.289C34.1868 17.274 33.8105 17.1389 33.4812 16.8838C33.1676 16.6136 33.0109 16.2234 33.0109 15.7131C33.0265 15.2478 33.0187 13.1242 32.9873 9.34204C32.9717 7.31591 33.003 5.61997 33.0814 4.2542C31.8271 4.2542 30.7688 4.26171 29.9065 4.27672C29.3734 4.27672 28.9657 4.12663 28.6835 3.82647C28.417 3.51129 28.2759 3.15109 28.2602 2.74586C28.2602 2.32563 28.3934 1.95792 28.66 1.64275C28.9265 1.31256 29.3263 1.13997 29.8594 1.12496C30.2514 1.12496 30.7688 1.12496 31.4116 1.12496C32.0701 1.10995 32.7835 1.10244 33.5518 1.10244C34.3357 1.08744 35.1118 1.07993 35.8801 1.07993C36.664 1.07993 37.3774 1.07993 38.0202 1.07993C38.6788 1.07993 39.204 1.07993 39.596 1.07993C40.035 1.07993 40.3799 1.18499 40.6308 1.39511C40.8973 1.60523 41.0776 1.86787 41.1717 2.18305C41.2658 2.49822 41.2736 2.8134 41.1952 3.12858C41.1168 3.44375 40.9522 3.7064 40.7013 3.91652C40.4505 4.12663 40.1134 4.23169 39.69 4.23169C38.7023 4.23169 37.5969 4.2392 36.374 4.2542C36.2956 5.55993 36.2642 7.24838 36.2799 9.31953C36.3113 13.1467 36.3191 15.2929 36.3034 15.7581Z" fill="#23D703"/>
<path d="M43.8302 17.334C43.2658 17.334 42.6543 17.2289 41.9958 17.0188C41.1805 16.7187 40.4985 16.2759 39.9497 15.6906C39.4167 15.0903 39.0874 14.4374 38.962 13.732C38.8679 13.2667 38.8209 12.8165 38.8209 12.3812C38.8209 11.3757 39.0247 10.4302 39.4323 9.54466C39.9968 8.29896 40.7886 7.2934 41.8077 6.52797C42.8268 5.76255 43.987 5.37983 45.2884 5.37983C45.7587 5.37983 46.2683 5.43987 46.8171 5.55993C47.1777 5.64998 47.5305 5.80757 47.8754 6.0327H47.993L48.2282 6.01018C48.6201 6.01018 48.9651 6.14526 49.263 6.41541C49.5765 6.68556 49.7568 7.01575 49.8039 7.40596L49.9685 8.95933C49.9999 9.6197 50.0391 10.7453 50.0861 12.3362L50.1331 13.5519C50.1645 14.3023 50.188 14.7901 50.2037 15.0152C50.2037 15.2553 50.188 15.4805 50.1567 15.6906C50.0939 16.1258 49.9215 16.501 49.6393 16.8162C49.3727 17.1164 49.0199 17.274 48.5809 17.289C48.2203 17.304 47.8911 17.2214 47.5932 17.0413C47.3109 16.8462 47.1071 16.501 46.9817 16.0058C46.6211 16.426 46.1821 16.7337 45.6647 16.9288C45.0532 17.1689 44.4417 17.304 43.8302 17.334ZM43.8538 14.1597C44.3241 14.1597 44.8102 14.0172 45.3119 13.732C45.4373 13.657 45.5784 13.5444 45.7352 13.3943L46.088 13.0791L46.4878 12.5388C46.5819 12.4338 46.6916 12.3587 46.8171 12.3137C46.8171 11.053 46.7779 9.9874 46.6995 9.11692L46.4643 8.95933L46.135 8.71169L45.9234 8.57662C45.6725 8.51658 45.4765 8.48657 45.3354 8.48657C44.771 8.48657 44.2222 8.69668 43.6891 9.11692C43.1717 9.53715 42.7562 10.1225 42.4427 10.8729C42.1918 11.4582 42.0664 11.9835 42.0664 12.4488C42.0664 13.2592 42.4427 13.792 43.1953 14.0472C43.4304 14.1222 43.6499 14.1597 43.8538 14.1597Z" fill="#23D703"/>
<path d="M60.2746 17.2214C59.5534 17.4616 58.8479 17.5516 58.158 17.4916C57.4681 17.4316 56.8018 17.2815 56.159 17.0413C55.4848 16.7862 54.8733 16.411 54.3245 15.9157C53.7915 15.4204 53.3524 14.8576 53.0075 14.2273C52.6626 13.5819 52.4587 12.9065 52.396 12.2011C52.3333 11.3156 52.4823 10.4151 52.8429 9.49963C53.2192 8.56911 53.7444 7.77367 54.4186 7.1133C54.9046 6.63303 55.4534 6.24281 56.0649 5.94265C56.6607 5.65749 57.3427 5.47739 58.111 5.40234C58.8792 5.3273 59.6553 5.45487 60.4393 5.78506C60.8626 5.95015 61.3094 6.2203 61.7798 6.59551C61.8112 6.62553 61.9131 6.71558 62.0856 6.86566L62.5089 7.20335C62.8538 7.45849 63.0576 7.74365 63.1204 8.05883C63.1831 8.374 63.1439 8.67417 63.0028 8.95933C62.8773 9.24449 62.6813 9.48462 62.4148 9.67973C62.1483 9.87484 61.8425 9.9799 61.4976 9.99491C61.1683 9.99491 60.8312 9.86734 60.4863 9.6122C60.455 9.59719 60.1571 9.35705 59.5926 8.89179C59.4045 8.74171 59.2634 8.64415 59.1693 8.59913C58.3226 8.26895 57.5387 8.47156 56.8175 9.20697C56.4412 9.58218 56.1433 10.0249 55.9238 10.5352C55.7199 11.0455 55.6416 11.5258 55.6886 11.976C55.7199 12.3962 55.8924 12.8315 56.206 13.2817C56.5196 13.717 56.9351 14.0322 57.4525 14.2273C58.0012 14.4224 58.4637 14.4974 58.84 14.4524C59.232 14.3924 59.5456 14.2498 59.7808 14.0247C59.8592 13.9496 59.9532 13.792 60.063 13.5519C60.3922 12.8615 60.5647 12.5013 60.5804 12.4713C60.7842 12.1111 61.0429 11.871 61.3565 11.7509C61.6701 11.6158 61.9836 11.5858 62.2972 11.6608C62.6265 11.7359 62.9165 11.8785 63.1674 12.0886C63.4182 12.2987 63.5829 12.5613 63.6613 12.8765C63.7397 13.1767 63.6848 13.5069 63.4966 13.8671C63.4496 13.9721 63.3791 14.1222 63.285 14.3173C63.2066 14.5124 63.136 14.6625 63.0733 14.7676C62.8225 15.3379 62.5246 15.7881 62.1796 16.1183C61.6465 16.6436 61.0115 17.0113 60.2746 17.2214Z" fill="#23D703"/>
<path d="M69.4457 15.7581C69.43 16.2684 69.2497 16.6511 68.9047 16.9063C68.5755 17.1614 68.1914 17.289 67.7523 17.289C67.329 17.274 66.9527 17.1389 66.6235 16.8838C66.3099 16.6136 66.1531 16.2234 66.1531 15.7131C66.1688 15.2478 66.1609 13.1242 66.1296 9.34204C66.1139 7.31591 66.1453 5.61997 66.2237 4.2542C64.9694 4.2542 63.911 4.26171 63.0487 4.27672C62.5156 4.27672 62.108 4.12663 61.8258 3.82647C61.5592 3.51129 61.4181 3.15109 61.4024 2.74586C61.4024 2.32563 61.5357 1.95792 61.8022 1.64275C62.0688 1.31256 62.4686 1.13997 63.0017 1.12496C63.3936 1.12496 63.911 1.12496 64.5539 1.12496C65.2124 1.10995 65.9258 1.10244 66.694 1.10244C67.478 1.08744 68.2541 1.07993 69.0223 1.07993C69.8063 1.07993 70.5197 1.07993 71.1625 1.07993C71.821 1.07993 72.3462 1.07993 72.7382 1.07993C73.1772 1.07993 73.5222 1.18499 73.773 1.39511C74.0396 1.60523 74.2199 1.86787 74.3139 2.18305C74.408 2.49822 74.4158 2.8134 74.3374 3.12858C74.2591 3.44375 74.0944 3.7064 73.8436 3.91652C73.5927 4.12663 73.2556 4.23169 72.8323 4.23169C71.8445 4.23169 70.7392 4.2392 69.5162 4.2542C69.4378 5.55993 69.4065 7.24838 69.4221 9.31953C69.4535 13.1467 69.4613 15.2929 69.4457 15.7581Z" fill="#E10303"/>
<path d="M76.1383 17.4691C74.7742 17.2139 73.708 16.6136 72.9398 15.6681C72.1558 14.7225 71.6855 13.6419 71.5287 12.4263C71.4346 11.6758 71.4581 10.9179 71.5992 10.1525C71.756 9.38707 72.0226 8.66667 72.3989 7.99129C72.7908 7.31591 73.2926 6.73059 73.904 6.23531C74.2647 5.93514 74.7272 5.70251 75.2916 5.53742C75.3073 5.53742 75.4719 5.4924 75.7855 5.40234C75.9109 5.37233 76.005 5.34231 76.0677 5.31229C76.5067 5.1472 76.9457 5.16221 77.3847 5.35732C78.8585 5.58245 79.8463 5.81507 80.348 6.05521C81.0536 6.38539 81.6259 6.88817 82.0649 7.56355C82.5196 8.22392 82.8253 8.95183 82.9821 9.74727C83.1545 10.5427 83.1702 11.2931 83.0291 11.9985C82.9507 12.7339 82.7782 13.4393 82.5117 14.1147C82.2452 14.8051 81.8375 15.458 81.2888 16.0733C80.74 16.6886 80.0972 17.1239 79.3603 17.379C78.4666 17.6792 77.3926 17.7092 76.1383 17.4691ZM76.7497 14.4074C77.4239 14.5274 77.9335 14.5274 78.2784 14.4074C78.6077 14.2873 78.8821 14.0472 79.1016 13.687C79.3368 13.3268 79.5092 12.9065 79.619 12.4263C79.7444 11.931 79.7993 11.4432 79.7836 10.9629C79.7836 10.4677 79.713 10.0324 79.5719 9.65722C79.4308 9.28201 79.2192 9.02687 78.9369 8.89179C78.6234 8.75672 78.2784 8.67417 77.9021 8.64415C77.5415 8.59913 77.1339 8.52409 76.6792 8.41903C76.4127 8.49407 76.2715 8.53159 76.2559 8.53159L76.0207 8.62164C75.5817 8.98184 75.2446 9.47712 75.0094 10.1075C74.7742 10.7378 74.7037 11.3907 74.7977 12.0661C74.9545 13.4018 75.6052 14.1822 76.7497 14.4074Z" fill="#E10303"/>
<path d="M91.1267 17.5141C89.8724 17.5141 88.7749 17.259 87.8342 16.7487C86.8935 16.2384 86.1722 15.5555 85.6705 14.7C85.1845 13.8446 84.9414 12.899 84.9414 11.8635C84.9414 10.5577 85.1923 9.42459 85.694 8.46405C86.1957 7.51853 86.917 6.76811 87.8577 6.2128C88.7984 5.65749 89.8646 5.37983 91.0562 5.37983C92.2791 5.37983 93.3296 5.61997 94.2076 6.10023C95.07 6.5805 95.7206 7.23337 96.1597 8.05883C96.5987 8.86928 96.8182 9.77729 96.8182 10.7828C96.8182 11.2931 96.6457 11.6909 96.3008 11.976C95.9558 12.2612 95.4933 12.4263 94.9132 12.4713C93.7373 12.5763 92.6946 12.6289 91.7852 12.6289C90.9229 12.6289 89.9979 12.6064 89.0101 12.5613L88.187 12.5388C88.281 13.2742 88.5789 13.8521 89.0807 14.2723C89.5981 14.6775 90.3742 14.8651 91.409 14.8351C91.8793 14.8201 92.2556 14.7676 92.5378 14.6775C92.82 14.5725 93.0709 14.4224 93.2904 14.2273C93.5256 14.0021 93.7451 13.8145 93.9489 13.6645C94.1528 13.4994 94.435 13.4168 94.7956 13.4168C95.2032 13.4168 95.5403 13.5519 95.8069 13.822C96.0891 14.0772 96.2302 14.3774 96.2302 14.7225C96.2302 15.2028 95.9793 15.6606 95.4776 16.0958C94.9759 16.5311 94.3252 16.8763 93.5256 17.1314C92.7417 17.3865 91.942 17.5141 91.1267 17.5141ZM88.234 10.2425C89.159 10.3626 90.186 10.4076 91.3149 10.3776C92.3967 10.3626 93.1885 10.2951 93.6902 10.175C93.6589 9.52965 93.455 9.01186 93.0787 8.62164C92.7181 8.23142 92.0596 8.04382 91.1032 8.05883C90.3036 8.07384 89.6529 8.24643 89.1512 8.57662C88.6495 8.9068 88.3437 9.46211 88.234 10.2425Z" fill="#E10303"/>
</svg>
