<svg width="128" height="128" viewBox="0 0 128 128" fill="none" xmlns="http://www.w3.org/2000/svg">
<path fill-rule="evenodd" clip-rule="evenodd" d="M42.9768 38.3351L57.687 8.91466C59.3925 5.5036 63.4432 4.11786 66.8542 5.82339C68.1334 6.46296 69.1993 7.63552 69.9455 8.91466L83.8029 37.2691C84.9755 39.5076 87.1074 41.1066 89.6657 41.4264L118.66 44.8374C122.604 45.3704 125.482 48.9947 124.949 52.9387C124.736 54.5376 123.99 56.03 122.817 57.3091L99.7923 80.1206C98.8329 80.9734 98.5131 82.3591 98.6197 83.6383L102.457 114.338C103.097 118.708 99.8989 122.759 95.6351 123.292C93.9295 123.505 92.3306 123.185 90.8383 122.333L66.641 109.008C64.9355 108.049 62.8036 108.049 60.9915 108.901L35.9415 121.906C32.4238 123.718 28.0534 122.333 26.2413 118.708C25.4951 117.429 25.2819 115.83 25.4951 114.338L27.5204 100.267C28.4798 93.3385 32.7436 87.4757 38.9261 84.2778L66.8542 69.994C67.6004 69.5676 67.8136 68.7149 67.4938 67.9687C67.174 67.3291 66.5344 67.0093 65.8949 67.2225L31.7842 72.1259C26.561 72.8721 21.2313 71.3798 17.1806 67.9687L5.77488 58.6949C2.47041 56.03 2.04403 51.2332 4.60233 47.9287C5.88148 46.4364 7.58701 45.477 9.50573 45.1572L38.6064 41.3198C40.5251 41.2132 42.124 39.934 42.9768 38.3351Z" fill="#FFEDB3"/>
<path fill-rule="evenodd" clip-rule="evenodd" d="M34.1293 74.8972L68.24 69.9938C69.9455 69.674 71.8642 70.5268 72.8236 72.2323C73.8896 74.5774 73.0368 77.2423 71.0115 78.3083L43.0834 92.6987C37.8602 95.4702 34.1293 100.587 33.2766 106.556L31.2513 120.627L32.4238 124.144L63.9762 107.516L91.0515 122.972H99.2593L101.924 118.175L98.7264 81.9326L123.883 55.2836C123.243 54.4309 122.177 53.8979 121.111 53.6847L92.1174 50.2736C88.5998 49.8472 85.5085 47.6087 84.0162 44.5175L70.1587 16.163C69.7323 15.4168 69.0927 14.7772 68.4532 14.3509C67.4938 13.8179 66.5344 13.8179 65.5751 14.1377C64.6157 14.4575 63.8696 15.2036 63.3366 16.0564L48.5198 45.4768C47.134 48.0351 44.6823 49.8472 41.9108 50.0604L12.8102 53.8979C11.6377 54.0045 10.5717 54.6441 9.71893 55.6034C8.22659 57.5221 8.54638 60.5068 10.4651 62.1057L21.8708 71.3796C25.2819 74.2577 29.7589 75.4302 34.1293 74.8972Z" fill="url(#paint0_linear_2311_12343)"/>
<path d="M94.6757 126.383C92.8636 126.383 91.0514 125.957 89.4525 124.997L65.2553 111.673C64.4025 111.246 63.3365 111.14 62.3772 111.673L37.3272 124.677C34.8755 125.957 32.104 126.17 29.5457 125.317C26.9874 124.464 24.8555 122.652 23.6829 120.2C22.7236 118.495 22.4038 116.363 22.617 114.124L24.5357 99.9472C25.7082 92.1657 30.5051 85.3436 37.4338 81.7193L57.687 71.3795L32.104 75.1104C26.028 75.9631 19.8455 74.2576 15.2619 70.3136L3.85612 60.9332C-0.620896 57.3089 -1.26047 50.5934 2.25719 46.0098C4.06932 43.8778 6.52102 42.4921 9.07931 42.1723L38.2865 38.3349C39.1393 38.2283 39.8855 37.6953 40.3119 36.8425L55.0221 7.4221C56.1946 5.07699 58.2199 3.26487 60.6716 2.51869C63.1233 1.66593 65.7882 1.87912 68.1333 3.05167C69.9455 4.01104 71.5444 5.50338 72.5038 7.52869L86.3612 35.8832C87.0008 37.2689 88.3865 38.2283 89.9855 38.4415L118.98 41.8525C124.522 42.5987 128.573 47.7153 127.934 53.2583C127.614 55.4968 126.654 57.7353 124.949 59.3342L101.924 82.2523C101.711 82.4655 101.498 82.8919 101.604 83.4249L105.335 114.018C105.762 116.896 104.909 119.774 103.097 122.119C101.285 124.464 98.7263 125.957 95.8482 126.276C95.5284 126.276 95.1021 126.383 94.6757 126.383ZM63.6563 105.384C65.1487 105.384 66.641 105.703 67.9201 106.45L92.1174 119.774C93.0767 120.307 94.0361 120.414 95.1021 120.414C96.3812 120.2 97.5538 119.561 98.4065 118.495C99.2593 117.429 99.5791 116.043 99.3659 114.764L95.5284 84.0644C95.3153 81.6127 96.0614 79.4808 97.6604 77.9885L120.578 55.2836C121.325 54.5374 121.751 53.6846 121.858 52.7253C122.177 50.3802 120.472 48.2483 118.127 47.9285L89.1327 44.5174C85.7216 43.9844 82.6304 41.8525 81.138 38.6546L67.2806 10.3002C66.8542 9.55401 66.2146 8.91444 65.575 8.48806C64.6157 7.95508 63.6563 7.95508 62.697 8.27486C61.7376 8.59465 60.9914 9.34082 60.4584 10.1936L45.6416 39.7206C44.2559 42.2789 41.8042 44.091 39.0327 44.3042L9.93208 48.1417C8.75953 48.2483 7.69357 48.8878 6.8408 49.8472C5.34846 51.7659 5.66825 54.7506 7.58697 56.3495L18.9927 65.6234C22.4038 68.5015 26.8808 69.674 31.2512 69.141L65.3619 64.2376C67.0674 63.9178 68.9861 64.7706 69.9455 66.4761C71.0114 68.8212 70.1587 71.4861 68.1333 72.5521L40.2053 86.9425C34.9821 89.714 31.2512 94.8306 30.3985 100.8L28.3731 114.871C28.2665 115.723 28.3731 116.683 28.7995 117.322C29.3325 118.495 30.1853 119.241 31.2512 119.561C32.3172 119.881 33.4897 119.774 34.4491 119.348L59.4991 106.343C60.8848 105.703 62.2706 105.384 63.6563 105.384Z" fill="url(#paint1_linear_2311_12343)"/>
<defs>
<linearGradient id="paint0_linear_2311_12343" x1="66.2967" y1="16.1209" x2="66.2967" y2="116.066" gradientUnits="userSpaceOnUse">
<stop stop-color="#FFD951"/>
<stop offset="1" stop-color="#FFB222"/>
</linearGradient>
<linearGradient id="paint1_linear_2311_12343" x1="63.9991" y1="31.3613" x2="63.9991" y2="96.9577" gradientUnits="userSpaceOnUse">
<stop stop-color="#E58F0D"/>
<stop offset="0.9996" stop-color="#EB7915"/>
</linearGradient>
</defs>
</svg>
