<svg width="22" height="22" viewBox="0 0 22 22" fill="none" xmlns="http://www.w3.org/2000/svg">
<g clip-path="url(#clip0_1923_13845)">
<path fill-rule="evenodd" clip-rule="evenodd" d="M7.6142 6.82325L9.98608 2.0795C10.2611 1.5295 10.9142 1.30607 11.4642 1.58107C11.6705 1.68419 11.8423 1.87325 11.9626 2.0795L14.197 6.65138C14.3861 7.01232 14.7298 7.27013 15.1423 7.32169L19.8173 7.87169C20.4533 7.95763 20.9173 8.542 20.8314 9.17794C20.797 9.43575 20.6767 9.67638 20.4876 9.88263L16.7751 13.5608C16.6205 13.6983 16.5689 13.9217 16.5861 14.1279L17.2048 19.0779C17.308 19.7826 16.7923 20.4358 16.1048 20.5217C15.8298 20.5561 15.572 20.5045 15.3314 20.367L11.4298 18.2186C11.1548 18.0639 10.8111 18.0639 10.5189 18.2014L6.47983 20.2983C5.91264 20.5904 5.20795 20.367 4.91577 19.7826C4.79545 19.5764 4.76108 19.3186 4.79545 19.0779L5.12202 16.8092C5.2767 15.692 5.9642 14.7467 6.96108 14.2311L11.4642 11.9279C11.5845 11.8592 11.6189 11.7217 11.5673 11.6014C11.5158 11.4983 11.4126 11.4467 11.3095 11.4811L5.80952 12.2717C4.96733 12.392 4.10795 12.1514 3.45483 11.6014L1.61577 10.1061C1.08295 9.67638 1.0142 8.90294 1.4267 8.37013C1.63295 8.1295 1.90795 7.97482 2.21733 7.92325L6.90952 7.3045C7.21889 7.28732 7.4767 7.08107 7.6142 6.82325Z" fill="#FFEDB3"/>
<path fill-rule="evenodd" clip-rule="evenodd" d="M6.18861 12.7188L11.6886 11.9282C11.9636 11.8766 12.273 12.0141 12.4277 12.2891C12.5996 12.6672 12.4621 13.0969 12.1355 13.2688L7.63236 15.5891C6.79018 16.036 6.18861 16.861 6.05111 17.8235L5.72455 20.0922L5.91361 20.6594L11.0011 17.9782L15.3667 20.4703H16.6902L17.1199 19.6969L16.6042 13.8532L20.6605 9.55628C20.5574 9.41878 20.3855 9.33284 20.2136 9.29847L15.5386 8.74847C14.9714 8.67972 14.473 8.31878 14.2324 7.82034L11.998 3.24847C11.9292 3.12816 11.8261 3.02503 11.723 2.95628C11.5683 2.87035 11.4136 2.87035 11.2589 2.92191C11.1042 2.97347 10.9839 3.09378 10.898 3.23128L8.50893 7.97503C8.28549 8.38753 7.89018 8.67972 7.4433 8.7141L2.75111 9.33285C2.56205 9.35003 2.39018 9.45316 2.25268 9.60785C2.01205 9.91722 2.06361 10.3985 2.37299 10.6563L4.21205 12.1516C4.76205 12.6157 5.48393 12.8047 6.18861 12.7188Z" fill="url(#paint0_linear_1923_13845)"/>
<path d="M15.9491 21.0204C15.6569 21.0204 15.3647 20.9516 15.1069 20.7969L11.2054 18.6485C11.0679 18.5797 10.896 18.5625 10.7413 18.6485L6.70223 20.7454C6.30692 20.9516 5.86004 20.986 5.44754 20.8485C5.03504 20.711 4.69129 20.4188 4.50223 20.0235C4.34754 19.7485 4.29598 19.4047 4.33036 19.0438L4.63973 16.7579C4.82879 15.5032 5.60223 14.4032 6.71942 13.8188L9.98504 12.1516L5.86004 12.7532C4.88036 12.8907 3.88348 12.6157 3.14442 11.9797L1.30536 10.4672C0.58348 9.88285 0.480355 8.80004 1.04754 8.06098C1.33973 7.71723 1.73504 7.49379 2.14754 7.44223L6.85692 6.82348C6.99442 6.80629 7.11473 6.72035 7.18348 6.58285L9.55536 1.8391C9.74442 1.46098 10.071 1.16879 10.4663 1.04848C10.8616 0.910978 11.2913 0.945353 11.6694 1.13442C11.9616 1.2891 12.2194 1.52973 12.3741 1.85629L14.6085 6.42817C14.7116 6.6516 14.935 6.80629 15.1929 6.84067L19.8679 7.39067C20.7616 7.51098 21.4147 8.33598 21.3116 9.22973C21.26 9.59067 21.1054 9.9516 20.8304 10.2094L17.1179 13.9047C17.0835 13.9391 17.0491 14.0079 17.0663 14.0938L17.6679 19.0266C17.7366 19.4907 17.5991 19.9547 17.3069 20.3329C17.0147 20.711 16.6022 20.9516 16.1382 21.0032C16.0866 21.0032 16.0179 21.0204 15.9491 21.0204ZM10.9475 17.6344C11.1882 17.6344 11.4288 17.686 11.635 17.8063L15.5366 19.9547C15.6913 20.0407 15.846 20.0579 16.0179 20.0579C16.2241 20.0235 16.4132 19.9204 16.5507 19.7485C16.6882 19.5766 16.7397 19.3532 16.7054 19.1469L16.0866 14.1969C16.0522 13.8016 16.1725 13.4579 16.4304 13.2172L20.1257 9.55629C20.246 9.43598 20.3147 9.29848 20.3319 9.14379C20.3835 8.76567 20.1085 8.42192 19.7304 8.37035L15.0554 7.82035C14.5054 7.73442 14.0069 7.39067 13.7663 6.87504L11.5319 2.30317C11.4632 2.18285 11.36 2.07973 11.2569 2.01098C11.1022 1.92504 10.9475 1.92504 10.7929 1.9766C10.6382 2.02817 10.5179 2.14848 10.4319 2.28598L8.04286 7.04692C7.81942 7.45942 7.4241 7.7516 6.97723 7.78598L2.28504 8.40473C2.09598 8.42192 1.92411 8.52504 1.78661 8.67973C1.54598 8.9891 1.59754 9.47035 1.90692 9.72817L3.74598 11.2235C4.29598 11.6875 5.01786 11.8766 5.72254 11.7907L11.2225 11C11.4975 10.9485 11.8069 11.086 11.9616 11.361C12.1335 11.7391 11.996 12.1688 11.6694 12.3407L7.16629 14.661C6.32411 15.1079 5.72254 15.9329 5.58504 16.8954L5.25848 19.1641C5.24129 19.3016 5.25848 19.4563 5.32723 19.5594C5.41317 19.7485 5.55067 19.8688 5.72254 19.9204C5.89442 19.9719 6.08348 19.9547 6.23817 19.886L10.2772 17.7891C10.5007 17.686 10.7241 17.6344 10.9475 17.6344Z" fill="url(#paint1_linear_1923_13845)"/>
</g>
<defs>
<linearGradient id="paint0_linear_1923_13845" x1="11.3753" y1="3.24168" x2="11.3753" y2="19.3568" gradientUnits="userSpaceOnUse">
<stop stop-color="#FFD951"/>
<stop offset="1" stop-color="#FFB222"/>
</linearGradient>
<linearGradient id="paint1_linear_1923_13845" x1="11.0028" y1="5.69906" x2="11.0028" y2="16.2758" gradientUnits="userSpaceOnUse">
<stop stop-color="#E58F0D"/>
<stop offset="0.9996" stop-color="#EB7915"/>
</linearGradient>
<clipPath id="clip0_1923_13845">
<rect width="22" height="22" fill="white"/>
</clipPath>
</defs>
</svg>
