<svg width="128" height="128" viewBox="0 0 128 128" fill="none" xmlns="http://www.w3.org/2000/svg">
<path fill-rule="evenodd" clip-rule="evenodd" d="M46.1938 42.2934L82.0895 42.2932C83.3595 42.2932 84.6285 42.4797 85.9547 43.098C87.5444 43.839 88.3874 45.007 88.978 45.8708C89.0239 45.938 89.0669 46.0073 89.1067 46.0781C89.8011 47.3142 90.159 48.6489 90.159 50.0845C90.159 51.4486 89.8345 52.9348 89.1067 54.2301C89.0998 54.2427 89.0927 54.2548 89.0857 54.2672L66.4073 93.2237C65.9071 94.0829 64.9867 94.6098 63.9926 94.6063C62.9986 94.6029 62.0818 94.0692 61.5878 93.2066L39.3259 54.3332C39.3195 54.3227 39.3131 54.3122 39.3067 54.3014C38.7972 53.4619 38.0093 52.1636 37.8715 50.4882C37.7449 48.9474 38.0911 47.4036 38.8653 46.0651C39.6395 44.7264 40.805 43.6562 42.2068 43.0011C43.7099 42.2987 45.2331 42.2934 46.1938 42.2934ZM61.2198 47.8585H46.1938C45.2066 47.8585 44.8276 47.9193 44.5627 48.0432C44.1963 48.2141 43.8886 48.4955 43.6829 48.8512C43.4772 49.207 43.3842 49.6194 43.418 50.0322C43.4374 50.2688 43.5339 50.5394 44.1028 51.4777C44.1147 51.4973 44.1263 51.5172 44.1378 51.5371L61.2198 81.3654V47.8585ZM66.7851 47.8585V81.5129L84.2628 51.4898C84.46 51.1314 84.5938 50.6134 84.5938 50.0845C84.5938 49.6555 84.5049 49.2829 84.306 48.8989C84.0973 48.5988 83.9702 48.44 83.8639 48.3312C83.7727 48.2381 83.7026 48.1883 83.6034 48.1421C83.1901 47.9494 82.7673 47.8585 82.0895 47.8585H66.7851Z" fill="white"/>
</svg>
