<svg width="128" height="128" viewBox="0 0 128 128" fill="none" xmlns="http://www.w3.org/2000/svg">
<path d="M90.6761 34.4285H36.7198L21.0312 67.2792L63.6979 107.571L106.365 67.2792L90.6761 34.4285Z" fill="white"/>
<path d="M69.273 59.9448V53.4566H84.6458V43.5713H42.786V53.4566H58.1601V59.9397C45.6652 60.4926 36.2693 62.8818 36.2693 65.7426C36.2693 68.6034 45.6696 70.9922 58.1601 71.5515V92.3332H69.2783V71.5476C81.7504 70.9922 91.1264 68.6056 91.1264 65.7469C91.1264 62.8881 81.7504 60.502 69.2783 59.9465M69.2783 69.7876V69.7821C68.965 69.8012 67.3533 69.8948 63.7655 69.8948C60.8969 69.8948 58.8785 69.8161 58.1685 69.7804V69.7893C47.1266 69.3172 38.8871 67.4618 38.8871 65.242C38.8871 63.0221 47.1283 61.1693 58.1654 60.6968V67.9408C58.8886 67.9888 60.9564 68.1066 63.8105 68.1066C67.2387 68.1066 68.9623 67.9688 69.2783 67.9408V60.6968C80.296 61.1702 88.5166 63.0272 88.5166 65.2394C88.5166 67.4516 80.2921 69.3095 69.2783 69.7829" fill="#53AE94"/>
</svg>
